<svg width="24" height="24" viewBox="0 0 24 24" fill="none" xmlns="http://www.w3.org/2000/svg">
<path d="M14.4694 20.031L6.96945 12.531C6.89971 12.4614 6.84439 12.3787 6.80665 12.2876C6.76891 12.1966 6.74948 12.099 6.74948 12.0004C6.74948 11.9019 6.76891 11.8043 6.80665 11.7132C6.84439 11.6222 6.89971 11.5394 6.96945 11.4698L14.4694 3.96979C14.6102 3.82906 14.801 3.75 15.0001 3.75C15.1991 3.75 15.39 3.82906 15.5307 3.96979C15.6714 4.11052 15.7505 4.3014 15.7505 4.50042C15.7505 4.69944 15.6714 4.89031 15.5307 5.03104L8.56038 12.0004L15.5307 18.9698C15.6004 19.0395 15.6557 19.1222 15.6934 19.2132C15.7311 19.3043 15.7505 19.4019 15.7505 19.5004C15.7505 19.599 15.7311 19.6965 15.6934 19.7876C15.6557 19.8786 15.6004 19.9614 15.5307 20.031C15.461 20.1007 15.3783 20.156 15.2872 20.1937C15.1962 20.2314 15.0986 20.2508 15.0001 20.2508C14.9015 20.2508 14.8039 20.2314 14.7129 20.1937C14.6219 20.156 14.5391 20.1007 14.4694 20.031Z" fill="#F3F3F3"/>
</svg>
